<svg width="346" height="181" viewBox="0 0 346 181" fill="none" xmlns="http://www.w3.org/2000/svg">
<path d="M331.588 92.6415C327.726 96.2775 323.858 100.08 319.905 103.965C288.689 134.649 252.215 170.5 172 170.5C103.116 170.5 52.1176 134.001 13.5695 93.4154C53.6371 49.8782 103.293 10 172 10C251.539 10 298.625 54.7442 331.588 92.6415Z" fill="#49416D" stroke="white" stroke-width="20" stroke-linejoin="round"/>
<circle cx="212" cy="114" r="50" fill="#A882DD" stroke="white" stroke-width="20"/>
<path d="M202 69C170.645 75.0926 170.645 75.0926 166 116C159.032 74.2222 159.032 74.2222 130 69C160.194 64.6481 160.194 64.6481 166 22C170.645 64.6481 170.645 64.6481 202 69Z" fill="#E08D79"/>
</svg>
